<svg width="20" height="20" viewBox="0 0 20 20" fill="none" xmlns="http://www.w3.org/2000/svg">
<path d="M4.16602 2.5H14.9993C15.6624 2.5 16.2983 2.76339 16.7671 3.23223C17.236 3.70107 17.4993 4.33696 17.4993 5V15.8333C17.4993 16.4964 17.236 17.1323 16.7671 17.6011C16.2983 18.0699 15.6624 18.3333 14.9993 18.3333H4.16602C3.50297 18.3333 2.86709 18.0699 2.39825 17.6011C1.92941 17.1323 1.66602 16.4964 1.66602 15.8333V5C1.66602 4.33696 1.92941 3.70107 2.39825 3.23223C2.86709 2.76339 3.50297 2.5 4.16602 2.5ZM4.16602 3.33333C3.72399 3.33333 3.30006 3.50893 2.9875 3.82149C2.67494 4.13405 2.49935 4.55797 2.49935 5V14.6583L6.07435 11.075L8.15768 13.1583L12.3243 8.99167L16.666 13.3333V5C16.666 4.55797 16.4904 4.13405 16.1779 3.82149C15.8653 3.50893 15.4414 3.33333 14.9993 3.33333H4.16602ZM8.15768 14.3417L6.07435 12.2583L2.49935 15.8333C2.49935 16.2754 2.67494 16.6993 2.9875 17.0118C3.30006 17.3244 3.72399 17.5 4.16602 17.5H14.9993C15.4414 17.5 15.8653 17.3244 16.1779 17.0118C16.4904 16.6993 16.666 16.2754 16.666 15.8333V14.5083L12.3243 10.175L8.15768 14.3417ZM6.24935 5C6.80188 5 7.33179 5.21949 7.72249 5.61019C8.11319 6.00089 8.33268 6.5308 8.33268 7.08333C8.33268 7.63587 8.11319 8.16577 7.72249 8.55647C7.33179 8.94717 6.80188 9.16667 6.24935 9.16667C5.69681 9.16667 5.16691 8.94717 4.77621 8.55647C4.38551 8.16577 4.16602 7.63587 4.16602 7.08333C4.16602 6.5308 4.38551 6.00089 4.77621 5.61019C5.16691 5.21949 5.69681 5 6.24935 5ZM6.24935 5.83333C5.91783 5.83333 5.59989 5.96503 5.36547 6.19945C5.13104 6.43387 4.99935 6.75181 4.99935 7.08333C4.99935 7.41485 5.13104 7.7328 5.36547 7.96722C5.59989 8.20164 5.91783 8.33333 6.24935 8.33333C6.58087 8.33333 6.89881 8.20164 7.13323 7.96722C7.36765 7.7328 7.49935 7.41485 7.49935 7.08333C7.49935 6.75181 7.36765 6.43387 7.13323 6.19945C6.89881 5.96503 6.58087 5.83333 6.24935 5.83333Z" fill="currentColor"/>
</svg>
