<svg width="20" height="20" viewBox="0 0 20 20" fill="none" xmlns="http://www.w3.org/2000/svg">
<path d="M6 4.75C5.81876 4.75001 5.64366 4.81564 5.50707 4.93477C5.37048 5.05389 5.28165 5.21845 5.257 5.398L5.25 5.5V14.5C5.25006 14.69 5.32224 14.8729 5.45197 15.0118C5.5817 15.1506 5.7593 15.2351 5.94888 15.248C6.13846 15.261 6.32589 15.2015 6.4733 15.0816C6.62071 14.9617 6.7171 14.7903 6.743 14.602L6.75 14.5V5.5C6.75 5.30109 6.67098 5.11032 6.53033 4.96967C6.38968 4.82902 6.19891 4.75 6 4.75ZM14.28 4.97C14.153 4.84298 13.9847 4.76575 13.8055 4.75236C13.6264 4.73896 13.4485 4.79029 13.304 4.897L13.22 4.97L8.72 9.47C8.59298 9.59699 8.51575 9.76534 8.50236 9.94445C8.48896 10.1236 8.54029 10.3015 8.647 10.446L8.72 10.53L13.22 15.03C13.354 15.163 13.5332 15.2405 13.7219 15.2471C13.9105 15.2538 14.0947 15.189 14.2378 15.0658C14.3808 14.9426 14.4721 14.77 14.4934 14.5825C14.5148 14.3949 14.4647 14.2062 14.353 14.054L14.28 13.97L10.31 10L14.28 6.03C14.4205 5.88937 14.4993 5.69875 14.4993 5.5C14.4993 5.30125 14.4205 5.11063 14.28 4.97Z" fill="currentColor"/>
</svg>
