<svg width="20" height="20" viewBox="0 0 20 20" fill="none" xmlns="http://www.w3.org/2000/svg">
<path d="M13.1758 14.6695C13.2629 14.7586 13.3312 14.8642 13.377 14.98C13.4228 15.0959 13.445 15.2197 13.4424 15.3442C13.4398 15.4687 13.4123 15.5915 13.3618 15.7053C13.3112 15.8191 13.2384 15.9217 13.1477 16.0071C13.057 16.0925 12.9502 16.1589 12.8335 16.2026C12.7169 16.2462 12.5927 16.2662 12.4682 16.2613C12.3438 16.2564 12.2215 16.2267 12.1087 16.1741C11.9958 16.1214 11.8945 16.0467 11.8108 15.9545L6.81084 10.642C6.64754 10.4682 6.55664 10.2386 6.55664 10.0001C6.55664 9.76163 6.64754 9.5321 6.81084 9.35826L11.8108 4.04576C11.8945 3.95352 11.9958 3.87889 12.1087 3.82622C12.2215 3.77355 12.3438 3.7439 12.4682 3.73901C12.5927 3.73411 12.7169 3.75406 12.8335 3.7977C12.9502 3.84134 13.057 3.90779 13.1477 3.99317C13.2384 4.07854 13.3112 4.18114 13.3618 4.29495C13.4123 4.40877 13.4398 4.53153 13.4424 4.65606C13.445 4.78059 13.4228 4.90439 13.377 5.02024C13.3312 5.13608 13.2629 5.24164 13.1758 5.33076L8.78084 9.99951L13.1758 14.6695Z" fill="currentColor"/>
</svg>
