<svg width="20" height="20" viewBox="0 0 20 20" fill="none" xmlns="http://www.w3.org/2000/svg">
<path d="M3.47668 16.9316C3.02816 16.9316 2.64434 16.772 2.32521 16.4529C2.00608 16.1338 1.84625 15.7497 1.8457 15.3006V12.0387H5.92313C5.92313 12.2698 6.00142 12.4635 6.15799 12.6201C6.31456 12.7767 6.50811 12.8548 6.73861 12.8542C6.95608 12.8542 7.1091 12.7555 7.19776 12.5582C7.28633 12.3608 7.40512 12.1877 7.55406 12.0387H12.447C12.447 12.2698 12.5253 12.4635 12.6818 12.6201C12.8384 12.7767 13.032 12.8548 13.2625 12.8542C13.48 12.8542 13.633 12.7555 13.7216 12.5582C13.8102 12.3608 13.929 12.1877 14.078 12.0387H18.1554V15.3006C18.1554 15.7491 17.9958 16.1332 17.6767 16.4529C17.3576 16.7726 16.9735 16.9321 16.5244 16.9316H3.47668ZM2.19229 10.4077L3.88442 6.4934C4.00674 6.19439 4.20382 5.95654 4.47564 5.77985C4.74747 5.60316 5.03969 5.51482 5.35229 5.51482H5.92313V4.69933C5.92313 4.25081 6.08296 3.86672 6.40264 3.54705C6.72231 3.22738 7.10617 3.06782 7.55406 3.06836H12.447C12.8956 3.06836 13.2796 3.22819 13.5993 3.54787C13.919 3.86754 14.0786 4.25136 14.078 4.69933V5.51482H14.6488C14.9614 5.51482 15.2536 5.60316 15.5255 5.77985C15.7972 5.95654 15.9943 6.19439 16.1167 6.4934L17.8088 10.4077H14.078C14.078 10.1767 13.9997 9.98313 13.8431 9.8271C13.6865 9.67107 13.493 9.59278 13.2625 9.59224C13.045 9.59224 12.8922 9.69091 12.8042 9.88826C12.7161 10.0856 12.5971 10.2588 12.447 10.4077H7.55406C7.55406 10.1767 7.47578 9.98313 7.31921 9.8271C7.16263 9.67107 6.96913 9.59278 6.73861 9.59224C6.52115 9.59224 6.36839 9.69091 6.28031 9.88826C6.19224 10.0856 6.07318 10.2588 5.92313 10.4077H2.19229ZM7.55406 5.51482H12.447V4.69933H7.55406V5.51482Z" fill="currentColor"/>
</svg>
